HIERARCHY
ROOT Root
{
  OFFSET 0.0 0.0 0.0
  CHANNELS 6 Xposition Yposition Zposition Zrotation Yrotation Xrotation
  JOINT Hips
  {
    OFFSET 0.0 100.0 0.0
    CHANNELS 6 Xposition Yposition Zposition Zrotation Yrotation Xrotation
    JOINT Spine1
    {
      OFFSET 5.003913 -0.037094 -0.013727
      CHANNELS 3 Zrotation Yrotation Xrotation
      JOINT Spine2
      {
        OFFSET 7.125363 -1e-06 0.0
        CHANNELS 3 Zrotation Yrotation Xrotation
        JOINT Chest
        {
          OFFSET 7.594027 1e-06 0.0
          CHANNELS 3 Zrotation Yrotation Xrotation
          JOINT Neck1
          {
            OFFSET 26.313086 -0.460272 -0.181672
            CHANNELS 3 Zrotation Yrotation Xrotation
            JOINT Neck2
            {
              OFFSET 8.045911 0.0 0.0
              CHANNELS 3 Zrotation Yrotation Xrotation
              JOINT Head
              {
                OFFSET 6.432774 0.0 0.0
                CHANNELS 3 Zrotation Yrotation Xrotation
                JOINT HeadEnd
                {
                  OFFSET 16.169773 0.06451 0.00362
                  CHANNELS 3 Zrotation Yrotation Xrotation
                }
                JOINT Jaw
                {
                  OFFSET 0.108741 3.12938 0.002639
                  CHANNELS 3 Zrotation Yrotation Xrotation
                }
                JOINT LeftEye
                {
                  OFFSET 4.45173 8.166359 3.206392
                  CHANNELS 3 Zrotation Yrotation Xrotation
                }
                JOINT RightEye
                {
                  OFFSET 4.436895 8.135758 -3.222429
                  CHANNELS 3 Zrotation Yrotation Xrotation
                }
              }
            }
          }
          JOINT LeftShoulder
          {
            OFFSET 23.218927 5.195579 1.621656
            CHANNELS 3 Zrotation Yrotation Xrotation
            JOINT LeftArm
            {
              OFFSET 15.902118 2e-06 -2e-06
              CHANNELS 3 Zrotation Yrotation Xrotation
              JOINT LeftForeArm
              {
                OFFSET 28.739307 0.0 -1e-06
                CHANNELS 3 Zrotation Yrotation Xrotation
                JOINT LeftHand
                {
                  OFFSET 27.093981 -4e-06 0.0
                  CHANNELS 3 Zrotation Yrotation Xrotation
                  JOINT LeftHandThumb1
                  {
                    OFFSET 2.276781 3.380274 0.83384
                    CHANNELS 3 Zrotation Yrotation Xrotation
                    JOINT LeftHandThumb2
                    {
                      OFFSET 4.705309 -1e-06 -1e-06
                      CHANNELS 3 Zrotation Yrotation Xrotation
                      JOINT LeftHandThumb3
                      {
                        OFFSET 2.798515 0.0 3e-06
                        CHANNELS 3 Zrotation Yrotation Xrotation
                        JOINT LeftHandThumbEnd
                        {
                          OFFSET 3.180793 4e-06 -4e-06
                          CHANNELS 3 Zrotation Yrotation Xrotation
                        }
                      }
                    }
                  }
                  JOINT LeftHandIndex1
                  {
                    OFFSET 3.247786 2.352677 0.137192
                    CHANNELS 3 Zrotation Yrotation Xrotation
                    JOINT LeftHandIndex2
                    {
                      OFFSET 6.367095 1e-06 0.0
                      CHANNELS 3 Zrotation Yrotation Xrotation
                      JOINT LeftHandIndex3
                      {
                        OFFSET 3.662364 0.0 0.0
                        CHANNELS 3 Zrotation Yrotation Xrotation
                        JOINT LeftHandIndex4
                        {
                          OFFSET 2.329242 4e-06 -4e-06
                          CHANNELS 3 Zrotation Yrotation Xrotation
                          JOINT LeftHandIndexEnd
                          {
                            OFFSET 2.767823 1e-06 0.0
                            CHANNELS 3 Zrotation Yrotation Xrotation
                          }
                        }
                      }
                    }
                  }
                  JOINT LeftHandMiddle1
                  {
                    OFFSET 3.163612 0.945023 -0.406112
                    CHANNELS 3 Zrotation Yrotation Xrotation
                    JOINT LeftHandMiddle2
                    {
                      OFFSET 6.276789 3e-06 0.0
                      CHANNELS 3 Zrotation Yrotation Xrotation
                      JOINT LeftHandMiddle3
                      {
                        OFFSET 4.35652 -1e-06 4e-06
                        CHANNELS 3 Zrotation Yrotation Xrotation
                        JOINT LeftHandMiddle4
                        {
                          OFFSET 2.996877 0.0 8e-06
                          CHANNELS 3 Zrotation Yrotation Xrotation
                          JOINT LeftHandMiddleEnd
                          {
                            OFFSET 2.323256 3e-06 -4e-06
                            CHANNELS 3 Zrotation Yrotation Xrotation
                          }
                        }
                      }
                    }
                  }
                  JOINT LeftHandRing1
                  {
                    OFFSET 2.882606 -0.309162 0.107445
                    CHANNELS 3 Zrotation Yrotation Xrotation
                    JOINT LeftHandRing2
                    {
                      OFFSET 6.033198 0.0 4e-06
                      CHANNELS 3 Zrotation Yrotation Xrotation
                      JOINT LeftHandRing3
                      {
                        OFFSET 4.350578 3e-06 0.0
                        CHANNELS 3 Zrotation Yrotation Xrotation
                        JOINT LeftHandRing4
                        {
                          OFFSET 2.651321 2e-06 -7e-06
                          CHANNELS 3 Zrotation Yrotation Xrotation
                          JOINT LeftHandRingEnd
                          {
                            OFFSET 1.937663 1e-06 -4e-06
                            CHANNELS 3 Zrotation Yrotation Xrotation
                          }
                        }
                      }
                    }
                  }
                  JOINT LeftHandPinky1
                  {
                    OFFSET 2.865315 -1.525436 0.575687
                    CHANNELS 3 Zrotation Yrotation Xrotation
                    JOINT LeftHandPinky2
                    {
                      OFFSET 5.54936 1e-06 -8e-06
                      CHANNELS 3 Zrotation Yrotation Xrotation
                      JOINT LeftHandPinky3
                      {
                        OFFSET 3.070974 0.0 -4e-06
                        CHANNELS 3 Zrotation Yrotation Xrotation
                        JOINT LeftHandPinky4
                        {
                          OFFSET 1.549672 1e-06 0.0
                          CHANNELS 3 Zrotation Yrotation Xrotation
                          JOINT LeftHandPinkyEnd
                          {
                            OFFSET 1.952123 0.0 0.0
                            CHANNELS 3 Zrotation Yrotation Xrotation
                          }
                        }
                      }
                    }
                  }
                }
              }
            }
          }
          JOINT RightShoulder
          {
            OFFSET 23.161716 5.296122 -1.380114
            CHANNELS 3 Zrotation Yrotation Xrotation
            JOINT RightArm
            {
              OFFSET -16.027195 -2e-06 1.1e-05
              CHANNELS 3 Zrotation Yrotation Xrotation
              JOINT RightForeArm
              {
                OFFSET -28.736639 4e-06 2e-06
                CHANNELS 3 Zrotation Yrotation Xrotation
                JOINT RightHand
                {
                  OFFSET -27.133619 6e-06 0.0
                  CHANNELS 3 Zrotation Yrotation Xrotation
                  JOINT RightHandThumb1
                  {
                    OFFSET -2.274328 -3.351035 -0.83067
                    CHANNELS 3 Zrotation Yrotation Xrotation
                    JOINT RightHandThumb2
                    {
                      OFFSET -4.703594 -3e-06 2e-06
                      CHANNELS 3 Zrotation Yrotation Xrotation
                      JOINT RightHandThumb3
                      {
                        OFFSET -2.794935 -4e-06 -3e-06
                        CHANNELS 3 Zrotation Yrotation Xrotation
                        JOINT RightHandThumbEnd
                        {
                          OFFSET -3.183852 4e-06 1e-06
                          CHANNELS 3 Zrotation Yrotation Xrotation
                        }
                      }
                    }
                  }
                  JOINT RightHandIndex1
                  {
                    OFFSET -3.253496 -2.33755 -0.127667
                    CHANNELS 3 Zrotation Yrotation Xrotation
                    JOINT RightHandIndex2
                    {
                      OFFSET -6.344434 0.0 0.0
                      CHANNELS 3 Zrotation Yrotation Xrotation
                      JOINT RightHandIndex3
                      {
                        OFFSET -3.654871 0.0 -8e-06
                        CHANNELS 3 Zrotation Yrotation Xrotation
                        JOINT RightHandIndex4
                        {
                          OFFSET -2.327586 -1e-06 0.0
                          CHANNELS 3 Zrotation Yrotation Xrotation
                          JOINT RightHandIndexEnd
                          {
                            OFFSET -2.770001 3e-06 8e-06
                            CHANNELS 3 Zrotation Yrotation Xrotation
                          }
                        }
                      }
                    }
                  }
                  JOINT RightHandMiddle1
                  {
                    OFFSET -3.168223 -0.944764 0.411762
                    CHANNELS 3 Zrotation Yrotation Xrotation
                    JOINT RightHandMiddle2
                    {
                      OFFSET -6.266691 -1e-06 -4e-06
                      CHANNELS 3 Zrotation Yrotation Xrotation
                      JOINT RightHandMiddle3
                      {
                        OFFSET -4.348901 0.0 0.0
                        CHANNELS 3 Zrotation Yrotation Xrotation
                        JOINT RightHandMiddle4
                        {
                          OFFSET -3.00024 2e-06 -4e-06
                          CHANNELS 3 Zrotation Yrotation Xrotation
                          JOINT RightHandMiddleEnd
                          {
                            OFFSET -2.321477 -4e-06 -4e-06
                            CHANNELS 3 Zrotation Yrotation Xrotation
                          }
                        }
                      }
                    }
                  }
                  JOINT RightHandRing1
                  {
                    OFFSET -2.885654 0.293261 -0.119232
                    CHANNELS 3 Zrotation Yrotation Xrotation
                    JOINT RightHandRing2
                    {
                      OFFSET -6.032835 -1e-06 -4e-06
                      CHANNELS 3 Zrotation Yrotation Xrotation
                      JOINT RightHandRing3
                      {
                        OFFSET -4.33881 0.0 -4e-06
                        CHANNELS 3 Zrotation Yrotation Xrotation
                        JOINT RightHandRing4
                        {
                          OFFSET -2.654903 -4e-06 -4e-06
                          CHANNELS 3 Zrotation Yrotation Xrotation
                          JOINT RightHandRingEnd
                          {
                            OFFSET -1.935122 0.0 4e-06
                            CHANNELS 3 Zrotation Yrotation Xrotation
                          }
                        }
                      }
                    }
                  }
                  JOINT RightHandPinky1
                  {
                    OFFSET -2.866241 1.503904 -0.60527
                    CHANNELS 3 Zrotation Yrotation Xrotation
                    JOINT RightHandPinky2
                    {
                      OFFSET -5.553177 -2e-06 0.0
                      CHANNELS 3 Zrotation Yrotation Xrotation
                      JOINT RightHandPinky3
                      {
                        OFFSET -3.062664 -1e-06 -4e-06
                        CHANNELS 3 Zrotation Yrotation Xrotation
                        JOINT RightHandPinky4
                        {
                          OFFSET -1.546529 2e-06 4e-06
                          CHANNELS 3 Zrotation Yrotation Xrotation
                          JOINT RightHandPinkyEnd
                          {
                            OFFSET -1.952341 0.0 -4e-06
                            CHANNELS 3 Zrotation Yrotation Xrotation
                          }
                        }
                      }
                    }
                  }
                }
              }
            }
          }
        }
      }
    }
    JOINT LeftLeg
    {
      OFFSET -8.443107 2.567604 10.043214
      CHANNELS 3 Zrotation Yrotation Xrotation
      JOINT LeftShin
      {
        OFFSET 43.229198 1e-06 -1e-06
        CHANNELS 3 Zrotation Yrotation Xrotation
        JOINT LeftFoot
        {
          OFFSET 42.298611 1e-06 1e-06
          CHANNELS 3 Zrotation Yrotation Xrotation
          JOINT LeftToeBase
          {
            OFFSET 14.165858 1e-06 0.0
            CHANNELS 3 Zrotation Yrotation Xrotation
            JOINT LeftToeEnd
            {
              OFFSET 6.7141 -0.234461 0.0
              CHANNELS 3 Zrotation Yrotation Xrotation
            }
          }
        }
      }
    }
    JOINT RightLeg
    {
      OFFSET -8.303923 2.592729 -10.047278
      CHANNELS 3 Zrotation Yrotation Xrotation
      JOINT RightShin
      {
        OFFSET -43.369682 0.0 1e-06
        CHANNELS 3 Zrotation Yrotation Xrotation
        JOINT RightFoot
        {
          OFFSET -42.260784 4e-06 2e-06
          CHANNELS 3 Zrotation Yrotation Xrotation
          JOINT RightToeBase
          {
            OFFSET -14.222245 -2e-06 -1e-06
            CHANNELS 3 Zrotation Yrotation Xrotation
            JOINT RightToeEnd
            {
              OFFSET -6.660062 0.232574 -2e-06
              CHANNELS 3 Zrotation Yrotation Xrotation
            }
          }
        }
      }
    }
  }
}
MOTION
Frames: 4
Frame Time: 0.03333333333333333
0.0 0.0 0.0 0.0 -0.0 0.0 -22.468687 4.316354 -90.519371 156.934647 88.163681 161.244476 3.290552 -3.648575 0.521621 -10.958663 -0.864685 -1.266699 10.672662 -5.116107 -5.064268 9.035189 2.650378 4.773296 -3.478985 -0.363651 -0.740563 -52.82394 -2.765771 -1.588651 8e-06 -0.0 0.0 -0.07653 0.113269 -0.090277 0.173959 -0.377345 0.107295 0.148382 0.625608 -0.243197 -23.336027 -68.797852 35.01157 9.588533 -70.492592 35.151981 19.406271 0.1129 -1.54247 -9.899176 8.800851 -26.657574 17.636633 -26.322723 52.411182 -19.466658 -14.395596 29.410381 -1e-06 -8.774822 -3e-06 15.488704 -17.197681 6.577598 -0.609776 -1.795653 -3.889326 -4.807088 -11.04681 -2.93785 4e-06 -20.976017 1e-06 -5.01997 -25.033558 -4.03188 5e-06 1e-06 -1e-06 -10.634534 -5.686968 -3.565587 10.573271 -17.922947 -3.113899 3e-06 -13.821206 1e-06 -0.501778 -31.181498 -4.027014 -11.563147 -58.411095 7.571842 -13.982713 -7.150195 -2.875041 13.772727 -8.401491 -3.218239 0.347734 -34.211544 0.771655 -0.963028 -17.733368 2.621019 0.0 1e-06 0.0 -17.346418 -20.095215 -4.20178 21.757557 -1.638375 3.866429 2e-06 -6.338822 1e-06 -1.69759 -22.591742 -6.194005 0.0 -5e-06 -2e-06 172.625305 -60.800426 8.359102 -35.511219 -51.442661 15.674535 43.696976 -5.507336 0.013636 0.763907 45.903198 56.404606 22.182119 -20.375895 49.933323 -16.701813 -16.743528 28.476532 -3e-06 -12.690601 -1e-06 18.171453 -16.66214 1.09869 -0.105918 -1.513856 -4.275882 -5.039041 -5.612871 -2.953557 4e-06 -11.020526 -3e-06 -6.111298 -15.895336 -3.840471 0.0 -0.0 -0.0 -10.283372 -5.680289 -4.341838 11.028296 -11.302406 -2.372633 -1.384269 -14.238584 -6.320122 -0.625437 -26.924194 -3.827601 -4.436367 -50.746639 -3.658228 -13.708527 -7.363475 -3.720939 18.141151 -14.052741 -3.242676 6e-06 -18.787271 -3e-06 -0.429712 -8.456045 2.555505 0.0 0.0 -1e-06 -15.923536 -20.094484 -5.473584 30.419214 -7.190827 1.735926 3e-06 -8.162928 0.0 -1.861901 -22.861473 -6.167943 0.0 -2e-06 -1e-06 167.91481 -17.608715 -35.065014 26.950239 3.254747 -5.765736 -44.128548 -40.725159 -20.666229 -10.401053 1.455894 1.297535 -0.999999 -0.0 -0.0 -6.521533 -18.738655 -25.097433 15.42694 -0.785632 -2.831503 -57.30238 -12.327333 -31.276741 -8.637536 0.57233 1.0078 -1.000002 -2e-06 -0.0 
0.0 0.0 0.0 0.0 -0.0 0.0 -22.478893 4.317027 -90.553383 156.227417 88.200935 160.527481 3.297362 -3.622393 0.508565 -10.964669 -0.856575 -1.283669 10.665556 -5.094079 -5.106002 9.010342 2.591818 4.777888 -3.486316 -0.35644 -0.688179 -52.801914 -2.70361 -1.622515 7e-06 0.0 0.0 -0.077318 0.115793 -0.094111 0.143911 -0.373267 0.09813 0.134446 0.625259 -0.241555 -23.399193 -68.802498 35.143719 9.747772 -70.498138 35.037209 19.372047 0.022641 -1.521277 -9.855139 8.78412 -26.311632 17.636627 -26.322723 52.411194 -19.46665 -14.395591 29.410378 -1e-06 -8.774818 -2e-06 15.505259 -17.19059 6.575064 -0.609776 -1.795655 -3.889327 -4.807089 -11.046805 -2.93785 3e-06 -20.976006 -1e-06 -5.019967 -25.033546 -4.031882 5e-06 1e-06 -0.0 -10.634532 -5.686967 -3.565588 10.573271 -17.922945 -3.113899 2e-06 -13.821203 1e-06 -0.501778 -31.181488 -4.027016 -11.58835 -58.454453 7.594343 -13.982711 -7.150199 -2.875043 13.772725 -8.401489 -3.218239 0.347732 -34.211536 0.771653 -0.963028 -17.733364 2.621018 0.0 1e-06 -0.0 -17.346413 -20.095213 -4.201784 21.757555 -1.638373 3.866429 1e-06 -6.338821 0.0 -1.69759 -22.591738 -6.194005 -0.0 -5e-06 -2e-06 172.427109 -60.796627 8.502429 -35.243946 -51.526302 15.436945 43.552113 -5.532629 -0.035908 0.938556 45.964634 56.521912 22.18211 -20.375891 49.933304 -16.701811 -16.743532 28.47653 -2e-06 -12.690601 0.0 18.165628 -16.70594 1.133822 -0.105919 -1.513856 -4.275882 -5.039041 -5.61287 -2.953554 3e-06 -11.020525 -2e-06 -6.111299 -15.89533 -3.840469 0.0 -1e-06 -2e-06 -10.28337 -5.680289 -4.341838 11.028294 -11.302404 -2.372635 -1.384271 -14.238581 -6.32012 -0.625441 -26.924191 -3.8276 -4.500982 -50.759956 -3.620952 -13.708527 -7.363474 -3.720938 18.141151 -14.052739 -3.242675 4e-06 -18.78727 -4e-06 -0.429713 -8.456043 2.555503 0.0 -0.0 -1e-06 -15.923538 -20.094482 -5.473581 30.41921 -7.190823 1.735924 2e-06 -8.162926 0.0 -1.861906 -22.861469 -6.167942 0.0 -1e-06 -2e-06 167.976624 -17.6145 -35.09053 26.785917 3.25506 -5.778806 -44.093426 -40.87006 -20.822645 -10.384834 1.443796 1.291229 -0.999998 -0.0 1e-06 -6.374648 -18.571152 -25.103573 15.060882 -0.838227 -2.83345 -57.014835 -12.480004 -31.31949 -8.603857 0.562174 1.006034 -1.000003 -1e-06 0.0 
0.0 0.0 0.0 0.0 -0.0 0.0 -22.493448 4.305303 -90.569946 156.49794 88.24086 160.803223 3.314569 -3.606886 0.493615 -10.952165 -0.852255 -1.304657 10.655767 -5.077057 -5.148427 8.989697 2.570266 4.74219 -3.495704 -0.294252 -0.629138 -52.758221 -2.636435 -1.642002 7e-06 0.0 0.0 -0.078223 0.116408 -0.0943 0.104858 -0.372209 0.090569 0.111497 0.623659 -0.233723 -23.30998 -68.775002 35.11853 9.837859 -70.589523 35.002708 19.31657 -0.028444 -1.503249 -9.812786 8.78032 -26.046007 17.63662 -26.322727 52.411201 -19.466661 -14.395596 29.410395 -1e-06 -8.774819 -2e-06 15.538986 -17.194132 6.573165 -0.609776 -1.795655 -3.889328 -4.807091 -11.04681 -2.93785 3e-06 -20.976017 -2e-06 -5.019971 -25.03356 -4.031882 6e-06 2e-06 0.0 -10.634533 -5.686974 -3.565587 10.573271 -17.922947 -3.113901 1e-06 -13.821208 0.0 -0.501779 -31.181498 -4.027019 -11.615783 -58.525581 7.615821 -13.982712 -7.150201 -2.875042 13.772726 -8.401489 -3.218241 0.347731 -34.211552 0.771652 -0.963029 -17.73337 2.621018 1e-06 2e-06 -0.0 -17.34642 -20.095221 -4.201782 21.757555 -1.638372 3.866428 1e-06 -6.338823 0.0 -1.69759 -22.591743 -6.194007 -0.0 -3e-06 -2e-06 172.243652 -60.80666 8.665661 -34.977505 -51.615719 15.224835 43.418922 -5.564244 -0.051834 1.02828 46.070347 56.538383 22.182106 -20.375895 49.933319 -16.701815 -16.743532 28.476534 -2e-06 -12.690602 0.0 18.16592 -16.759161 1.14856 -0.10592 -1.513854 -4.275881 -5.039039 -5.612872 -2.953557 4e-06 -11.020521 -2e-06 -6.1113 -15.895332 -3.840471 -0.0 -1e-06 -1e-06 -10.283367 -5.68029 -4.341837 11.028293 -11.302403 -2.372635 -1.38427 -14.238581 -6.320119 -0.625438 -26.924187 -3.8276 -4.56024 -50.745029 -3.610883 -13.708525 -7.363477 -3.720936 18.14115 -14.052736 -3.242679 4e-06 -18.78727 -4e-06 -0.429713 -8.456043 2.555504 0.0 0.0 0.0 -15.923538 -20.094482 -5.473582 30.41921 -7.190823 1.735923 2e-06 -8.162925 -0.0 -1.861903 -22.861469 -6.167944 -0.0 -3e-06 -1e-06 168.046783 -17.660412 -35.185947 26.698408 3.281196 -5.828789 -43.84729 -41.195965 -21.080637 -10.409752 1.419731 1.276756 -0.999998 0.0 0.0 -6.28246 -18.432999 -25.062948 14.860534 -0.918407 -2.844443 -56.857765 -12.67185 -31.342953 -8.543365 0.543864 0.999501 -1.000003 -0.0 -0.0 
0.0 0.0 0.0 0.0 -0.0 0.0 -22.510054 4.283488 -90.585922 157.328842 88.26709 161.649353 3.33906 -3.621478 0.48518 -10.931868 -0.862128 -1.325371 10.641257 -5.050899 -5.198829 8.979443 2.559288 4.716298 -3.508182 -0.208876 -0.598878 -52.693813 -2.539999 -1.672082 8e-06 0.0 0.0 -0.078939 0.111733 -0.088064 0.069418 -0.380207 0.090391 0.093075 0.620273 -0.22064 -23.174244 -68.73378 35.052891 9.897415 -70.723572 34.97514 19.235653 -0.025593 -1.505193 -9.754372 8.814523 -25.809475 17.636625 -26.322737 52.411201 -19.466665 -14.395602 29.410395 -1e-06 -8.774823 -1e-06 15.578829 -17.176971 6.567992 -0.609776 -1.795656 -3.889329 -4.807091 -11.046811 -2.93785 3e-06 -20.976019 -1e-06 -5.019973 -25.03356 -4.031882 6e-06 1e-06 -0.0 -10.634535 -5.686975 -3.565586 10.573275 -17.922951 -3.113902 2e-06 -13.821211 1e-06 -0.501778 -31.181505 -4.027017 -11.629961 -58.614643 7.636762 -13.982716 -7.150201 -2.87504 13.772733 -8.401493 -3.218242 0.347732 -34.211559 0.771655 -0.963029 -17.733372 2.621019 1e-06 -0.0 0.0 -17.346424 -20.095224 -4.201779 21.757565 -1.638373 3.866428 1e-06 -6.338825 1e-06 -1.697591 -22.591751 -6.194007 0.0 -4e-06 -2e-06 172.077515 -60.841393 8.797523 -34.790436 -51.664173 15.114418 43.319458 -5.616123 -0.038991 1.054397 46.230602 56.52533 22.182116 -20.375895 49.933331 -16.701817 -16.743525 28.476538 -4e-06 -12.690601 -2e-06 18.189825 -16.801149 1.144755 -0.10592 -1.513854 -4.275881 -5.039041 -5.612875 -2.953557 4e-06 -11.020527 -3e-06 -6.111296 -15.895338 -3.840474 -0.0 -0.0 -0.0 -10.28337 -5.68029 -4.34184 11.028296 -11.302407 -2.372634 -1.384269 -14.238584 -6.320123 -0.625435 -26.924194 -3.827605 -4.579721 -50.738789 -3.62767 -13.708525 -7.363479 -3.720941 18.14115 -14.052744 -3.242676 7e-06 -18.787273 -5e-06 -0.429711 -8.456044 2.555504 -0.0 -0.0 0.0 -15.923536 -20.094484 -5.473585 30.419214 -7.190827 1.735925 3e-06 -8.162928 0.0 -1.8619 -22.861475 -6.167945 -0.0 -2e-06 -2e-06 168.139191 -17.691927 -35.367931 26.593081 3.301598 -5.92196 -43.298225 -41.676399 -21.446032 -10.471824 1.39831 1.263169 -1.000001 -0.0 -1e-06 -6.192554 -18.320509 -25.035353 14.684454 -1.002107 -2.860786 -56.782711 -12.922834 -31.295149 -8.488153 0.531556 0.99891 -1.000003 -0.0 -0.0 
